<?xml version="1.0" encoding="UTF-8"?>
<svg id="Calque_2" xmlns="http://www.w3.org/2000/svg" viewBox="0 0 35 36">
  <g id="Calque_1-2" data-name="Calque_1">
    <path d="M0,0v36h35V0H0ZM32.06,14.53l-5.67,5.72c-.34.34-.49.82-.42,1.3l1.31,8.01c.2,1.23-1.09,2.15-2.19,1.56l-6.89-3.7c-.44-.24-.98-.24-1.42,0l-6.89,3.7c-1.1.59-2.39-.34-2.19-1.56l1.31-8.01c.08-.47-.08-.96-.42-1.3l-5.67-5.72c-.86-.87-.37-2.35.84-2.54l7.78-1.18c.49-.07.91-.39,1.12-.83l3.47-7.18c.55-1.13,2.16-1.13,2.7,0l3.47,7.18c.22.45.64.76,1.12.83l7.78,1.18c1.21.18,1.7,1.67.84,2.54Z"/>
  </g>
</svg>